<svg id="skateboard_x5F_purple" xmlns="http://www.w3.org/2000/svg" viewBox="0 0 992 514"><style>.st0{fill:#8c8c8c}.st2{fill:#4500b2}</style><g id="_x0A_tires"><g id="_x0A_tire_x5F_wrap_3_"><path id="wheel" class="st0" d="M281 498.4c-.2 8.6-7.3 15.6-16 15.6h-34c-8.7 0-15.8-7-16-15.6.8.1 1.6.1 2.5.1h61c.8 0 1.7 0 2.5-.1z"/><path id="_x0A_tire_4_" d="M313 403v61c0 19-15.5 34.5-34.5 34.5h-61c-19 0-34.5-15.5-34.5-34.5v-61c0-19 15.5-34.5 34.5-34.5h61c19 0 34.5 15.5 34.5 34.5z"/></g><g id="_x0A_tire_x5F_wrap_2_"><path id="wheel_2_" class="st0" d="M215 15.6C215.2 7 222.3 0 231 0h34c8.7 0 15.8 7 16 15.6-.8-.1-1.6-.1-2.5-.1h-61c-.8 0-1.7 0-2.5.1z"/><path id="_x0A_tire_3_" d="M183 111V50c0-19 15.5-34.5 34.5-34.5h61c19 0 34.5 15.5 34.5 34.5v61c0 19-15.5 34.5-34.5 34.5h-61c-19 0-34.5-15.5-34.5-34.5z"/></g><g id="_x0A_tire_x5F_wrap_1_"><path id="wheel_4_" class="st0" d="M776 498.4c-.2 8.6-7.3 15.6-16 15.6h-34c-8.7 0-15.8-7-16-15.6.8.1 1.6.1 2.5.1h61c.8 0 1.7 0 2.5-.1z"/><path id="_x0A_tire_2_" d="M808 403v61c0 19-15.5 34.5-34.5 34.5h-61c-19 0-34.5-15.5-34.5-34.5v-61c0-19 15.5-34.5 34.5-34.5h61c19 0 34.5 15.5 34.5 34.5z"/></g><g id="_x0A_tire_x5F_wrap"><path id="wheel_6_" class="st0" d="M710 15.6C710.2 7 717.3 0 726 0h34c8.7 0 15.8 7 16 15.6-.8-.1-1.6-.1-2.5-.1h-61c-.8 0-1.7 0-2.5.1z"/><path id="_x0A_tire_1_" d="M678 111V50c0-19 15.5-34.5 34.5-34.5h61c19 0 34.5 15.5 34.5 34.5v61c0 19-15.5 34.5-34.5 34.5h-61c-19 0-34.5-15.5-34.5-34.5z"/></g></g><path id="body" d="M992 245.5v24c0 90.7-74.2 165-165 165H165c-90.7 0-165-74.2-165-165v-24c0-90.7 74.2-165 165-165h662c90.8 0 165 74.2 165 165z" fill="#ffd399"/><g id="lines"><g id="line"><g id="line_1_"><path id="line_3_" class="st2" d="M.4 234h991.2c-1-15-4.1-29.4-8.9-43H9.3c-4.8 13.6-7.8 28-8.9 43z"/><path id="line_2_" class="st2" d="M9.3 324h973.4c4.8-13.6 7.9-28 8.9-43H.4c1.1 15 4.1 29.4 8.9 43z"/></g></g></g><g id="screws"><g id="screw_4_"><g id="screw"><path class="st0" d="M189 186.5c14.4 0 26 11.6 26 26s-11.6 26-26 26-26-11.6-26-26 11.6-26 26-26z"/><path d="M208.2 220.2h-11.5v11.5h-15.4v-11.5h-11.5v-15.4h11.5v-11.5h15.4v11.5h11.5v15.4z"/></g><g id="screw_1_"><path class="st0" d="M189 276.5c14.4 0 26 11.6 26 26s-11.6 26-26 26-26-11.6-26-26 11.6-26 26-26z"/><path d="M208.2 310.2h-11.5v11.5h-15.4v-11.5h-11.5v-15.4h11.5v-11.5h15.4v11.5h11.5v15.4z"/></g><g id="screw_2_"><path class="st0" d="M287 186.5c14.4 0 26 11.6 26 26s-11.6 26-26 26-26-11.6-26-26 11.6-26 26-26z"/><path d="M306.2 220.2h-11.5v11.5h-15.4v-11.5h-11.5v-15.4h11.5v-11.5h15.4v11.5h11.5v15.4z"/></g><g id="screw_3_"><path class="st0" d="M287 276.5c14.4 0 26 11.6 26 26s-11.6 26-26 26-26-11.6-26-26 11.6-26 26-26z"/><path d="M306.2 310.2h-11.5v11.5h-15.4v-11.5h-11.5v-15.4h11.5v-11.5h15.4v11.5h11.5v15.4z"/></g></g><g id="screw_9_"><g id="screw_5_"><path class="st0" d="M705 186.5c14.4 0 26 11.6 26 26s-11.6 26-26 26-26-11.6-26-26 11.6-26 26-26z"/><path d="M724.2 220.2h-11.5v11.5h-15.4v-11.5h-11.5v-15.4h11.5v-11.5h15.4v11.5h11.5v15.4z"/></g><g id="screw_6_"><path class="st0" d="M705 276.5c14.4 0 26 11.6 26 26s-11.6 26-26 26-26-11.6-26-26 11.6-26 26-26z"/><path d="M724.2 310.2h-11.5v11.5h-15.4v-11.5h-11.5v-15.4h11.5v-11.5h15.4v11.5h11.5v15.4z"/></g><g id="screw_7_"><path class="st0" d="M803 186.5c14.4 0 26 11.6 26 26s-11.6 26-26 26-26-11.6-26-26 11.6-26 26-26z"/><path d="M822.2 220.2h-11.5v11.5h-15.4v-11.5h-11.5v-15.4h11.5v-11.5h15.4v11.5h11.5v15.4z"/></g><g id="screw_8_"><path class="st0" d="M803 276.5c14.4 0 26 11.6 26 26s-11.6 26-26 26-26-11.6-26-26 11.6-26 26-26z"/><path d="M822.2 310.2h-11.5v11.5h-15.4v-11.5h-11.5v-15.4h11.5v-11.5h15.4v11.5h11.5v15.4z"/></g></g></g></svg>