<?xml version="1.0" encoding="utf-8"?>
<!-- Generator: Adobe Illustrator 24.1.0, SVG Export Plug-In . SVG Version: 6.00 Build 0)  -->
<svg version="1.1" id="レイヤー_1" xmlns="http://www.w3.org/2000/svg" xmlns:xlink="http://www.w3.org/1999/xlink" x="0px"
	 y="0px" viewBox="0 0 500 500" style="enable-background:new 0 0 500 500;" xml:space="preserve">
<style type="text/css">
	.st0{fill:#777777;}
	.st1{fill:#FFFFFF;}
</style>
<path class="st0" d="M500,95v310c0,52.2-42.8,95-95,95H95c-52.2,0-95-42.8-95-95V95C0,42.8,42.8,0,95,0h310C457.2,0,500,42.8,500,95
	z"/>
<path class="st1" d="M423.1,232.2c-1.2,50.2-14.3,84.3-39.2,102.3c-24.9,18-53,28-84.4,30.1c4.9,4.2,9.3,10.4,13,18.6
	s5.6,18.6,5.6,31.1l-0.5,73.8c0,3.8,1.4,7.2,4.2,10.2c0.7,0.7,1.4,1.3,2.3,1.8H211.7l-39.2-0.4c2.4-0.5,4.4-1.4,5.8-2.9
	c2.8-2.9,4.2-6.3,4.2-10.2l-0.5-49.7c-27.2,5.2-48.2,4.1-63-3.4s-24.3-16.8-28.6-28c-2.8-7.3-6.4-14.4-10.8-21.2
	c-4.4-6.8-10.8-13-19.3-18.6C51.8,360,48.4,355.8,50,353s5.7-3.8,12.4-3.1c7.8,0.7,15.3,3.1,22.5,7.3c7.2,4.2,13.7,11,19.3,20.4
	c12.3,18.5,26.3,28.1,41.8,28.8s27.9-1.4,37-6.2c1.4-8.8,3.7-16,6.9-21.9s6.7-10.5,10.6-13.6c-31.4-2.1-59.5-12.2-84.1-30.4
	c-24.7-18.1-37.8-52.1-39.2-102.1c0-14.7,2.5-28,7.4-40.1s11.8-22.5,20.6-31.7c-2.1-3.5-3.9-11.5-5.3-24.1s1.2-28.3,7.9-47.1
	c0-1,6-0.8,18,0.8s30.9,10.6,56.6,27c22.2-5.9,44.9-8.9,68-8.9s45.6,2.9,67.5,8.9c25.7-16.4,44.6-25.4,56.6-27s18-1.8,18-0.8
	c6.7,18.8,9.3,34.5,7.9,47.1s-3.2,20.6-5.3,24.1c8.8,9.5,15.7,20.1,20.6,32.2C420.6,204.7,423.1,217.8,423.1,232.2L423.1,232.2z"/>
</svg>
