<svg xmlns="http://www.w3.org/2000/svg" viewBox="0 0 992 514"><path d="M992 245.5c0-3.9-.1-7.7-.4-11.5v-.5c-.1-1.2-.2-2.4-.3-3.5-.1-1.5-.3-3.1-.5-4.6 0-.3-.1-.7-.1-1-.2-1.2-.3-2.4-.5-3.6 0-.3-.1-.5-.1-.8-.6-3.6-1.2-7.1-2-10.7l-.3-1.5c-.2-.9-.4-1.8-.6-2.6-.2-.8-.4-1.7-.7-2.5-.2-.6-.3-1.3-.5-1.9-.4-1.6-.9-3.1-1.4-4.6 0-.1-.1-.2-.1-.3-.5-1.5-1-3.1-1.5-4.6 0-.1-.1-.2-.1-.3-22.6-64.2-84-110.5-155.7-110.5h-19V50c0-18.2-14.3-33.2-32.2-34.4h.2C775.8 7 768.7 0 760 0h-34c-8.7 0-15.8 7-16 15.6h.1C692.2 16.8 678 31.8 678 50v30.5H313V50c0-18.2-14.3-33.2-32.2-34.4h.2C280.8 7 273.7 0 265 0h-34c-8.7 0-15.8 7-16 15.6h.1C197.2 16.8 183 31.8 183 50v30.5h-18C93.3 80.5 32 126.8 9.3 191c-.1.3-.2.6-.3 1-.3.9-.6 1.9-.9 2.8-.2.6-.4 1.1-.5 1.7-.5 1.5-.9 3-1.3 4.5-.1.4-.2.7-.3 1.1-.4 1.4-.8 2.8-1.1 4.2 0 .2-.1.4-.1.6-2.1 8.7-3.5 17.6-4.2 26.7v.4c-.3 3.8-.4 7.6-.4 11.5v24c0 3.9.1 7.7.4 11.5v.4c.7 9.2 2.1 18.1 4.2 26.8 0 .1.1.2.1.3.4 1.5.8 3.1 1.2 4.6.1.2.1.5.2.7.4 1.6.9 3.2 1.4 4.7.1.4.2.8.4 1.1.4 1.2.8 2.3 1.2 3.4.1.3.2.5.3.8C32 388.2 93.4 434.5 165 434.5h18V464c0 18.2 14.3 33.2 32.2 34.4h-.2c.2 8.6 7.3 15.6 16 15.6h34c8.7 0 15.8-7 16-15.6h-.1c17.9-1.2 32.1-16.2 32.1-34.4v-29.5h365V464c0 18.2 14.3 33.2 32.2 34.4h-.2c.2 8.6 7.3 15.6 16 15.6h34c8.7 0 15.8-7 16-15.6h-.1c17.9-1.2 32.1-16.2 32.1-34.4v-29.5h19c71.7 0 133-46.3 155.7-110.5.1-.3.2-.7.3-1 .3-.8.5-1.6.8-2.4.6-1.8 1.1-3.6 1.7-5.4.1-.2.1-.4.2-.7.3-1.1.6-2.1.9-3.2.1-.4.2-.7.3-1.1.3-1.2.6-2.3.9-3.5v-.2c.9-3.9 1.7-7.9 2.3-11.9v-.2l.6-3.9c0-.1 0-.3.1-.4.2-1.8.4-3.6.6-5.3.1-1.1.2-2.2.3-3.2v-.5c.3-3.8.4-7.6.4-11.5v-24.1zm-216.8-230h-1.7 1.7zm-62.7 0h-1.7 1.7zm-432.3 0h-1.7 1.7zm-62.7 0h-1.7 1.7zm-1.7 483h1.7-1.7zm62.7 0h1.7-1.7zm432.3 0h1.7-1.7zm62.7 0h1.7-1.7z" opacity=".5"/></svg>